<?xml version="1.0" encoding="iso-8859-1"?>
<!-- Uploaded to: SVG Repo, www.svgrepo.com, Generator: SVG Repo Mixer Tools -->
<svg fill="#a855f7" height="800px" width="800px" version="1.1" id="Layer_1" xmlns="http://www.w3.org/2000/svg" xmlns:xlink="http://www.w3.org/1999/xlink" 
	 viewBox="0 0 512 512" xml:space="preserve">
<g>
	<g>
		<path d="M512,187.963l-3.97-39.247c-0.232-2.301-2.643-23.136-15.377-45.449c-12.344-21.625-36.755-48.462-82.955-53.499
			c-4.313-0.468-8.62-0.632-12.856-0.485c-3.074-2.924-6.394-5.654-9.935-8.167C367.328,27.224,346.245,20.18,324.24,20.18
			c-43.813,0-75.24,28.483-76.557,29.696l-29.012,26.723l26.578,5.148c-22.103,16.214-34.819,34.903-42.131,51.362h-70.261
			l-23.618,42.513h-89.31C8.923,175.622,0,184.545,0,195.55s8.923,19.928,19.928,19.928h30.756
			c-6.425,3.308-10.828,9.992-10.828,17.715c0,11.006,8.923,19.928,19.928,19.928h33.214v119.126H66.428v39.857h26.571v39.858H27.9
			v39.857h422.483v-39.857h-65.1v-39.858h26.571v-39.857h-26.571V252.679h20.092c5.997,9.53,10.743,20.1,14.259,31.766l8.487,28.154
			l23.004-18.314c1.926-1.533,19.155-15.746,30.655-42.143c7.885-18.099,14.095-44.653,6.918-77.971L512,187.963z M156.308,172.965
			h165.666l22.143,39.857H134.165L156.308,172.965z M219.213,451.962h-86.357v-39.858h86.357V451.962z M345.426,451.962H259.07
			v-39.858h86.357V451.962z M345.426,293.863h-39.857v39.857h39.857v38.527H259.07v-79.714h-39.857v79.714h-86.357V333.72h39.857
			v-39.857h-39.857v-41.184h212.57V293.863z M457.989,125.433l-31.941-0.373l13.707,28.854c13.996,29.462,16.066,56.629,6.15,80.745
			c-0.672,1.633-1.379,3.201-2.111,4.703c-12.216-22.187-29.212-40.55-50.811-55.014c0.48-10.06-5.373-19.76-15.257-23.672
			c-5.714-2.263-11.764-2.185-17.121-0.246l-15.177-27.321h-96.37c10.578-14.043,26.034-25.449,46.25-34.034l29.4-12.484
			l-24.139-20.918c-0.326-0.282-0.678-0.583-1.055-0.905c7.207-2.718,15.619-4.731,24.727-4.731c13.574,0,26.898,4.57,39.6,13.585
			c3.707,2.629,6.931,5.636,9.583,8.936l7.327,9.11l11.528-1.95c4.185-0.708,8.584-0.816,13.102-0.324
			c23.231,2.531,40.735,13.48,52.024,32.54c0.696,1.178,1.352,2.354,1.966,3.525C458.879,125.446,458.416,125.438,457.989,125.433z"
			/>
	</g>
</g>
</svg>